<mxfile host="Electron" modified="2023-11-21T01:13:56.494Z" agent="Mozilla/5.0 (Windows NT 10.0; Win64; x64) AppleWebKit/537.36 (KHTML, like Gecko) draw.io/22.0.2 Chrome/114.0.5735.289 Electron/25.8.4 Safari/537.36" etag="dBF9KP436N8gmLsfeE_q" version="22.0.2" type="device" pages="4">
  <diagram id="EXlcSLWcjFqMLzKGcRQS" name="Design">
    <mxGraphModel dx="1159" dy="875" grid="0" gridSize="10" guides="1" tooltips="1" connect="1" arrows="1" fold="1" page="1" pageScale="1" pageWidth="1700" pageHeight="1100" math="0" shadow="0">
      <root>
        <mxCell id="0" />
        <mxCell id="1" parent="0" />
        <mxCell id="peavHA_WOAvhpDEUOTa6-5" style="edgeStyle=orthogonalEdgeStyle;rounded=0;orthogonalLoop=1;jettySize=auto;html=1;startArrow=classic;startFill=1;" edge="1" parent="1" source="peavHA_WOAvhpDEUOTa6-1">
          <mxGeometry relative="1" as="geometry">
            <mxPoint x="757.78" y="104" as="targetPoint" />
          </mxGeometry>
        </mxCell>
        <mxCell id="peavHA_WOAvhpDEUOTa6-1" value="ASP.NET" style="html=1;whiteSpace=wrap;" vertex="1" parent="1">
          <mxGeometry x="484.78" y="79" width="110" height="50" as="geometry" />
        </mxCell>
        <mxCell id="peavHA_WOAvhpDEUOTa6-7" style="edgeStyle=orthogonalEdgeStyle;rounded=0;orthogonalLoop=1;jettySize=auto;html=1;" edge="1" parent="1" source="peavHA_WOAvhpDEUOTa6-2">
          <mxGeometry relative="1" as="geometry">
            <mxPoint x="484.7777777777778" y="104" as="targetPoint" />
          </mxGeometry>
        </mxCell>
        <mxCell id="peavHA_WOAvhpDEUOTa6-2" value="User" style="shape=umlActor;verticalLabelPosition=bottom;verticalAlign=top;html=1;" vertex="1" parent="1">
          <mxGeometry x="353" y="74" width="30" height="60" as="geometry" />
        </mxCell>
        <mxCell id="peavHA_WOAvhpDEUOTa6-6" style="edgeStyle=orthogonalEdgeStyle;rounded=0;orthogonalLoop=1;jettySize=auto;html=1;entryX=0.5;entryY=1;entryDx=0;entryDy=0;startArrow=classic;startFill=1;" edge="1" parent="1" source="peavHA_WOAvhpDEUOTa6-3" target="peavHA_WOAvhpDEUOTa6-4">
          <mxGeometry relative="1" as="geometry" />
        </mxCell>
        <mxCell id="peavHA_WOAvhpDEUOTa6-3" value="SQL DB" style="html=1;whiteSpace=wrap;" vertex="1" parent="1">
          <mxGeometry x="757.78" y="227" width="110" height="50" as="geometry" />
        </mxCell>
        <mxCell id="peavHA_WOAvhpDEUOTa6-4" value="ADO.NET" style="html=1;whiteSpace=wrap;" vertex="1" parent="1">
          <mxGeometry x="757.78" y="79" width="110" height="50" as="geometry" />
        </mxCell>
        <mxCell id="peavHA_WOAvhpDEUOTa6-12" style="edgeStyle=orthogonalEdgeStyle;rounded=0;orthogonalLoop=1;jettySize=auto;html=1;entryX=0;entryY=0.5;entryDx=0;entryDy=0;" edge="1" parent="1" source="peavHA_WOAvhpDEUOTa6-10" target="peavHA_WOAvhpDEUOTa6-11">
          <mxGeometry relative="1" as="geometry" />
        </mxCell>
        <mxCell id="peavHA_WOAvhpDEUOTa6-10" value="On Launch" style="ellipse;whiteSpace=wrap;html=1;" vertex="1" parent="1">
          <mxGeometry x="298" y="446" width="140" height="70" as="geometry" />
        </mxCell>
        <mxCell id="peavHA_WOAvhpDEUOTa6-11" value="ASP.NET" style="html=1;whiteSpace=wrap;" vertex="1" parent="1">
          <mxGeometry x="527" y="456" width="110" height="50" as="geometry" />
        </mxCell>
      </root>
    </mxGraphModel>
  </diagram>
  <diagram name="Parlay" id="B1So3NL2Caof-eTsBA-9">
    <mxGraphModel dx="915" dy="691" grid="0" gridSize="10" guides="1" tooltips="1" connect="1" arrows="1" fold="1" page="1" pageScale="1" pageWidth="850" pageHeight="1100" background="none" math="0" shadow="0">
      <root>
        <mxCell id="0" />
        <mxCell id="1" parent="0" />
        <mxCell id="mXWrOZBpIng6gN12lOdS-1" value="Parlay" style="swimlane;fontStyle=1;align=center;verticalAlign=top;childLayout=stackLayout;horizontal=1;startSize=26;horizontalStack=0;resizeParent=1;resizeParentMax=0;resizeLast=0;collapsible=1;marginBottom=0;whiteSpace=wrap;html=1;" parent="1" vertex="1">
          <mxGeometry x="297" y="100" width="257" height="216" as="geometry" />
        </mxCell>
        <mxCell id="mXWrOZBpIng6gN12lOdS-6" value="- Bets: List&amp;lt;Bet&amp;gt;" style="text;strokeColor=none;fillColor=none;align=left;verticalAlign=top;spacingLeft=4;spacingRight=4;overflow=hidden;rotatable=0;points=[[0,0.5],[1,0.5]];portConstraint=eastwest;whiteSpace=wrap;html=1;" parent="mXWrOZBpIng6gN12lOdS-1" vertex="1">
          <mxGeometry y="26" width="257" height="26" as="geometry" />
        </mxCell>
        <mxCell id="mXWrOZBpIng6gN12lOdS-2" value="+ DecimalOdds: decimal" style="text;strokeColor=none;fillColor=none;align=left;verticalAlign=top;spacingLeft=4;spacingRight=4;overflow=hidden;rotatable=0;points=[[0,0.5],[1,0.5]];portConstraint=eastwest;whiteSpace=wrap;html=1;" parent="mXWrOZBpIng6gN12lOdS-1" vertex="1">
          <mxGeometry y="52" width="257" height="26" as="geometry" />
        </mxCell>
        <mxCell id="mXWrOZBpIng6gN12lOdS-5" value="+ Wager: decimal" style="text;strokeColor=none;fillColor=none;align=left;verticalAlign=top;spacingLeft=4;spacingRight=4;overflow=hidden;rotatable=0;points=[[0,0.5],[1,0.5]];portConstraint=eastwest;whiteSpace=wrap;html=1;" parent="mXWrOZBpIng6gN12lOdS-1" vertex="1">
          <mxGeometry y="78" width="257" height="26" as="geometry" />
        </mxCell>
        <mxCell id="mXWrOZBpIng6gN12lOdS-7" value="+ item: attribute" style="text;strokeColor=none;fillColor=none;align=left;verticalAlign=top;spacingLeft=4;spacingRight=4;overflow=hidden;rotatable=0;points=[[0,0.5],[1,0.5]];portConstraint=eastwest;whiteSpace=wrap;html=1;" parent="mXWrOZBpIng6gN12lOdS-1" vertex="1">
          <mxGeometry y="104" width="257" height="26" as="geometry" />
        </mxCell>
        <mxCell id="mXWrOZBpIng6gN12lOdS-3" value="" style="line;strokeWidth=1;fillColor=none;align=left;verticalAlign=middle;spacingTop=-1;spacingLeft=3;spacingRight=3;rotatable=0;labelPosition=right;points=[];portConstraint=eastwest;strokeColor=inherit;" parent="mXWrOZBpIng6gN12lOdS-1" vertex="1">
          <mxGeometry y="130" width="257" height="8" as="geometry" />
        </mxCell>
        <mxCell id="mXWrOZBpIng6gN12lOdS-4" value="+ AddBet(Bet): void" style="text;strokeColor=none;fillColor=none;align=left;verticalAlign=top;spacingLeft=4;spacingRight=4;overflow=hidden;rotatable=0;points=[[0,0.5],[1,0.5]];portConstraint=eastwest;whiteSpace=wrap;html=1;" parent="mXWrOZBpIng6gN12lOdS-1" vertex="1">
          <mxGeometry y="138" width="257" height="26" as="geometry" />
        </mxCell>
        <mxCell id="mXWrOZBpIng6gN12lOdS-8" value="+ method(type): type" style="text;strokeColor=none;fillColor=none;align=left;verticalAlign=top;spacingLeft=4;spacingRight=4;overflow=hidden;rotatable=0;points=[[0,0.5],[1,0.5]];portConstraint=eastwest;whiteSpace=wrap;html=1;" parent="mXWrOZBpIng6gN12lOdS-1" vertex="1">
          <mxGeometry y="164" width="257" height="26" as="geometry" />
        </mxCell>
        <mxCell id="mXWrOZBpIng6gN12lOdS-9" value="+ method(type): type" style="text;strokeColor=none;fillColor=none;align=left;verticalAlign=top;spacingLeft=4;spacingRight=4;overflow=hidden;rotatable=0;points=[[0,0.5],[1,0.5]];portConstraint=eastwest;whiteSpace=wrap;html=1;" parent="mXWrOZBpIng6gN12lOdS-1" vertex="1">
          <mxGeometry y="190" width="257" height="26" as="geometry" />
        </mxCell>
      </root>
    </mxGraphModel>
  </diagram>
  <diagram id="4b6uZbzOA6dy_5VZU9l5" name="Bet">
    <mxGraphModel dx="869" dy="656" grid="0" gridSize="10" guides="1" tooltips="1" connect="1" arrows="1" fold="1" page="1" pageScale="1" pageWidth="850" pageHeight="1100" math="0" shadow="0">
      <root>
        <mxCell id="0" />
        <mxCell id="1" parent="0" />
        <mxCell id="Gj3AgRM_eMUuYMDtLiwx-1" value="Bet" style="swimlane;fontStyle=1;align=center;verticalAlign=top;childLayout=stackLayout;horizontal=1;startSize=26;horizontalStack=0;resizeParent=1;resizeParentMax=0;resizeLast=0;collapsible=1;marginBottom=0;whiteSpace=wrap;html=1;" parent="1" vertex="1">
          <mxGeometry x="319" y="169" width="213" height="190" as="geometry" />
        </mxCell>
        <mxCell id="Gj3AgRM_eMUuYMDtLiwx-2" value="+ DecimalOdds: decimal" style="text;strokeColor=none;fillColor=none;align=left;verticalAlign=top;spacingLeft=4;spacingRight=4;overflow=hidden;rotatable=0;points=[[0,0.5],[1,0.5]];portConstraint=eastwest;whiteSpace=wrap;html=1;" parent="Gj3AgRM_eMUuYMDtLiwx-1" vertex="1">
          <mxGeometry y="26" width="213" height="26" as="geometry" />
        </mxCell>
        <mxCell id="Gj3AgRM_eMUuYMDtLiwx-5" value="+ Wager: decimal" style="text;strokeColor=none;fillColor=none;align=left;verticalAlign=top;spacingLeft=4;spacingRight=4;overflow=hidden;rotatable=0;points=[[0,0.5],[1,0.5]];portConstraint=eastwest;whiteSpace=wrap;html=1;" parent="Gj3AgRM_eMUuYMDtLiwx-1" vertex="1">
          <mxGeometry y="52" width="213" height="26" as="geometry" />
        </mxCell>
        <mxCell id="Gj3AgRM_eMUuYMDtLiwx-6" value="+ Payout: decimal" style="text;strokeColor=none;fillColor=none;align=left;verticalAlign=top;spacingLeft=4;spacingRight=4;overflow=hidden;rotatable=0;points=[[0,0.5],[1,0.5]];portConstraint=eastwest;whiteSpace=wrap;html=1;" parent="Gj3AgRM_eMUuYMDtLiwx-1" vertex="1">
          <mxGeometry y="78" width="213" height="26" as="geometry" />
        </mxCell>
        <mxCell id="Gj3AgRM_eMUuYMDtLiwx-3" value="" style="line;strokeWidth=1;fillColor=none;align=left;verticalAlign=middle;spacingTop=-1;spacingLeft=3;spacingRight=3;rotatable=0;labelPosition=right;points=[];portConstraint=eastwest;strokeColor=inherit;" parent="Gj3AgRM_eMUuYMDtLiwx-1" vertex="1">
          <mxGeometry y="104" width="213" height="8" as="geometry" />
        </mxCell>
        <mxCell id="Gj3AgRM_eMUuYMDtLiwx-4" value="+ method(type): type" style="text;strokeColor=none;fillColor=none;align=left;verticalAlign=top;spacingLeft=4;spacingRight=4;overflow=hidden;rotatable=0;points=[[0,0.5],[1,0.5]];portConstraint=eastwest;whiteSpace=wrap;html=1;" parent="Gj3AgRM_eMUuYMDtLiwx-1" vertex="1">
          <mxGeometry y="112" width="213" height="26" as="geometry" />
        </mxCell>
        <mxCell id="Gj3AgRM_eMUuYMDtLiwx-7" value="+ item: attribute" style="text;strokeColor=none;fillColor=none;align=left;verticalAlign=top;spacingLeft=4;spacingRight=4;overflow=hidden;rotatable=0;points=[[0,0.5],[1,0.5]];portConstraint=eastwest;whiteSpace=wrap;html=1;" parent="Gj3AgRM_eMUuYMDtLiwx-1" vertex="1">
          <mxGeometry y="138" width="213" height="26" as="geometry" />
        </mxCell>
        <mxCell id="Gj3AgRM_eMUuYMDtLiwx-8" value="+ item: attribute" style="text;strokeColor=none;fillColor=none;align=left;verticalAlign=top;spacingLeft=4;spacingRight=4;overflow=hidden;rotatable=0;points=[[0,0.5],[1,0.5]];portConstraint=eastwest;whiteSpace=wrap;html=1;" parent="Gj3AgRM_eMUuYMDtLiwx-1" vertex="1">
          <mxGeometry y="164" width="213" height="26" as="geometry" />
        </mxCell>
      </root>
    </mxGraphModel>
  </diagram>
  <diagram id="edCtQHoQ_tqJPDcIjl3k" name="Page-3">
    <mxGraphModel dx="10834" dy="6587" grid="0" gridSize="10" guides="1" tooltips="1" connect="1" arrows="1" fold="1" page="1" pageScale="1" pageWidth="4681" pageHeight="3300" math="0" shadow="0">
      <root>
        <mxCell id="0" />
        <mxCell id="1" parent="0" />
        <mxCell id="HTESsjXgD58MRlcuuZan-1" value="HEAD" style="rounded=0;whiteSpace=wrap;html=1;" vertex="1" parent="1">
          <mxGeometry x="821" y="227" width="120" height="60" as="geometry" />
        </mxCell>
        <mxCell id="HTESsjXgD58MRlcuuZan-2" value="CLE" style="rounded=0;whiteSpace=wrap;html=1;" vertex="1" parent="1">
          <mxGeometry x="-529" y="381" width="120" height="60" as="geometry" />
        </mxCell>
        <mxCell id="HTESsjXgD58MRlcuuZan-3" value="TEN" style="rounded=0;whiteSpace=wrap;html=1;" vertex="1" parent="1">
          <mxGeometry x="1967" y="441" width="120" height="60" as="geometry" />
        </mxCell>
        <mxCell id="HTESsjXgD58MRlcuuZan-4" value="DEN" style="rounded=0;whiteSpace=wrap;html=1;" vertex="1" parent="1">
          <mxGeometry x="-1833" y="590.5" width="120" height="60" as="geometry" />
        </mxCell>
        <mxCell id="HTESsjXgD58MRlcuuZan-16" value="BUF" style="rounded=0;whiteSpace=wrap;html=1;" vertex="1" parent="1">
          <mxGeometry x="-2613" y="721" width="120" height="60" as="geometry" />
        </mxCell>
        <mxCell id="HTESsjXgD58MRlcuuZan-17" value="WAS" style="rounded=0;whiteSpace=wrap;html=1;" vertex="1" parent="1">
          <mxGeometry x="263.5" y="764.5" width="120" height="60" as="geometry" />
        </mxCell>
        <mxCell id="HTESsjXgD58MRlcuuZan-18" value="BUF" style="rounded=0;whiteSpace=wrap;html=1;" vertex="1" parent="1">
          <mxGeometry x="1512" y="774" width="120" height="60" as="geometry" />
        </mxCell>
        <mxCell id="HTESsjXgD58MRlcuuZan-19" value="WAS" style="rounded=0;whiteSpace=wrap;html=1;" vertex="1" parent="1">
          <mxGeometry x="2502" y="756" width="120" height="60" as="geometry" />
        </mxCell>
        <mxCell id="HTESsjXgD58MRlcuuZan-24" value="TEX" style="rounded=0;whiteSpace=wrap;html=1;" vertex="1" parent="1">
          <mxGeometry x="-3500" y="916.25" width="120" height="60" as="geometry" />
        </mxCell>
        <mxCell id="HTESsjXgD58MRlcuuZan-25" value="JAX" style="rounded=0;whiteSpace=wrap;html=1;" vertex="1" parent="1">
          <mxGeometry x="-1739" y="908" width="120" height="60" as="geometry" />
        </mxCell>
        <mxCell id="HTESsjXgD58MRlcuuZan-26" value="TEX" style="rounded=0;whiteSpace=wrap;html=1;" vertex="1" parent="1">
          <mxGeometry x="140" y="910.5" width="120" height="60" as="geometry" />
        </mxCell>
        <mxCell id="HTESsjXgD58MRlcuuZan-27" value="JAX" style="rounded=0;whiteSpace=wrap;html=1;" vertex="1" parent="1">
          <mxGeometry x="387" y="910.5" width="120" height="60" as="geometry" />
        </mxCell>
        <mxCell id="HTESsjXgD58MRlcuuZan-28" value="TEX" style="rounded=0;whiteSpace=wrap;html=1;" vertex="1" parent="1">
          <mxGeometry x="1377" y="920" width="120" height="60" as="geometry" />
        </mxCell>
        <mxCell id="HTESsjXgD58MRlcuuZan-29" value="JAX" style="rounded=0;whiteSpace=wrap;html=1;" vertex="1" parent="1">
          <mxGeometry x="1624" y="920" width="120" height="60" as="geometry" />
        </mxCell>
        <mxCell id="HTESsjXgD58MRlcuuZan-30" value="TEX" style="rounded=0;whiteSpace=wrap;html=1;" vertex="1" parent="1">
          <mxGeometry x="2386" y="902" width="120" height="60" as="geometry" />
        </mxCell>
        <mxCell id="HTESsjXgD58MRlcuuZan-31" value="JAX" style="rounded=0;whiteSpace=wrap;html=1;" vertex="1" parent="1">
          <mxGeometry x="2633" y="902" width="120" height="60" as="geometry" />
        </mxCell>
        <mxCell id="HTESsjXgD58MRlcuuZan-32" value="ATL" style="rounded=0;whiteSpace=wrap;html=1;" vertex="1" parent="1">
          <mxGeometry x="-3900" y="1090.25" width="120" height="60" as="geometry" />
        </mxCell>
        <mxCell id="HTESsjXgD58MRlcuuZan-33" value="DET" style="rounded=0;whiteSpace=wrap;html=1;" vertex="1" parent="1">
          <mxGeometry x="-3085" y="1103.25" width="120" height="54.5" as="geometry" />
        </mxCell>
        <mxCell id="HTESsjXgD58MRlcuuZan-34" value="ATL" style="rounded=0;whiteSpace=wrap;html=1;" vertex="1" parent="1">
          <mxGeometry x="-2145" y="1087.75" width="120" height="60" as="geometry" />
        </mxCell>
        <mxCell id="HTESsjXgD58MRlcuuZan-35" value="DET" style="rounded=0;whiteSpace=wrap;html=1;" vertex="1" parent="1">
          <mxGeometry x="-1328" y="1084" width="120" height="60" as="geometry" />
        </mxCell>
        <mxCell id="HTESsjXgD58MRlcuuZan-36" value="ATL" style="rounded=0;whiteSpace=wrap;html=1;" vertex="1" parent="1">
          <mxGeometry x="-50" y="1086.5" width="120" height="60" as="geometry" />
        </mxCell>
        <mxCell id="HTESsjXgD58MRlcuuZan-37" value="DET" style="rounded=0;whiteSpace=wrap;html=1;" vertex="1" parent="1">
          <mxGeometry x="163" y="1086.5" width="120" height="60" as="geometry" />
        </mxCell>
        <mxCell id="HTESsjXgD58MRlcuuZan-38" value="ATL" style="rounded=0;whiteSpace=wrap;html=1;" vertex="1" parent="1">
          <mxGeometry x="387" y="1086.5" width="120" height="60" as="geometry" />
        </mxCell>
        <mxCell id="HTESsjXgD58MRlcuuZan-39" value="DET" style="rounded=0;whiteSpace=wrap;html=1;" vertex="1" parent="1">
          <mxGeometry x="600" y="1086.5" width="120" height="60" as="geometry" />
        </mxCell>
        <mxCell id="HTESsjXgD58MRlcuuZan-40" value="ATL" style="rounded=0;whiteSpace=wrap;html=1;" vertex="1" parent="1">
          <mxGeometry x="1114" y="1093" width="120" height="60" as="geometry" />
        </mxCell>
        <mxCell id="HTESsjXgD58MRlcuuZan-41" value="DET" style="rounded=0;whiteSpace=wrap;html=1;" vertex="1" parent="1">
          <mxGeometry x="1327" y="1093" width="120" height="60" as="geometry" />
        </mxCell>
        <mxCell id="HTESsjXgD58MRlcuuZan-42" value="ATL" style="rounded=0;whiteSpace=wrap;html=1;" vertex="1" parent="1">
          <mxGeometry x="1653" y="1093" width="120" height="60" as="geometry" />
        </mxCell>
        <mxCell id="HTESsjXgD58MRlcuuZan-43" value="DET" style="rounded=0;whiteSpace=wrap;html=1;" vertex="1" parent="1">
          <mxGeometry x="1866" y="1093" width="120" height="60" as="geometry" />
        </mxCell>
        <mxCell id="HTESsjXgD58MRlcuuZan-47" value="ATL" style="rounded=0;whiteSpace=wrap;html=1;" vertex="1" parent="1">
          <mxGeometry x="2186" y="1093" width="120" height="60" as="geometry" />
        </mxCell>
        <mxCell id="HTESsjXgD58MRlcuuZan-48" value="DET" style="rounded=0;whiteSpace=wrap;html=1;" vertex="1" parent="1">
          <mxGeometry x="2399" y="1093" width="120" height="60" as="geometry" />
        </mxCell>
        <mxCell id="HTESsjXgD58MRlcuuZan-49" value="ATL" style="rounded=0;whiteSpace=wrap;html=1;" vertex="1" parent="1">
          <mxGeometry x="2633" y="1093" width="120" height="60" as="geometry" />
        </mxCell>
        <mxCell id="HTESsjXgD58MRlcuuZan-50" value="DET" style="rounded=0;whiteSpace=wrap;html=1;" vertex="1" parent="1">
          <mxGeometry x="2846" y="1093" width="120" height="60" as="geometry" />
        </mxCell>
        <mxCell id="HTESsjXgD58MRlcuuZan-51" value="MIA" style="rounded=0;whiteSpace=wrap;html=1;" vertex="1" parent="1">
          <mxGeometry x="-168" y="590.5" width="120" height="60" as="geometry" />
        </mxCell>
        <mxCell id="HTESsjXgD58MRlcuuZan-53" value="DEN" style="rounded=0;whiteSpace=wrap;html=1;" vertex="1" parent="1">
          <mxGeometry x="1831" y="604" width="120" height="60" as="geometry" />
        </mxCell>
        <mxCell id="HTESsjXgD58MRlcuuZan-54" value="MIA" style="rounded=0;whiteSpace=wrap;html=1;" vertex="1" parent="1">
          <mxGeometry x="2103" y="604" width="120" height="60" as="geometry" />
        </mxCell>
        <mxCell id="HTESsjXgD58MRlcuuZan-56" value="637 -&amp;nbsp;101573" style="text;html=1;strokeColor=none;fillColor=none;align=center;verticalAlign=middle;whiteSpace=wrap;rounded=0;" vertex="1" parent="1">
          <mxGeometry x="1655" y="2209" width="115" height="30" as="geometry" />
        </mxCell>
        <mxCell id="HTESsjXgD58MRlcuuZan-57" value="IND&amp;nbsp;" style="rounded=0;whiteSpace=wrap;html=1;" vertex="1" parent="1">
          <mxGeometry x="-4156" y="1256.75" width="120" height="60" as="geometry" />
        </mxCell>
        <mxCell id="HTESsjXgD58MRlcuuZan-58" value="BAL" style="rounded=0;whiteSpace=wrap;html=1;" vertex="1" parent="1">
          <mxGeometry x="-3997" y="1256.75" width="120" height="60" as="geometry" />
        </mxCell>
        <mxCell id="HTESsjXgD58MRlcuuZan-59" value="IND&amp;nbsp;" style="rounded=0;whiteSpace=wrap;html=1;" vertex="1" parent="1">
          <mxGeometry x="-3806" y="1256.75" width="120" height="60" as="geometry" />
        </mxCell>
        <mxCell id="HTESsjXgD58MRlcuuZan-60" value="BAL" style="rounded=0;whiteSpace=wrap;html=1;" vertex="1" parent="1">
          <mxGeometry x="-3645" y="1256.75" width="120" height="60" as="geometry" />
        </mxCell>
        <mxCell id="HTESsjXgD58MRlcuuZan-61" value="IND&amp;nbsp;" style="rounded=0;whiteSpace=wrap;html=1;" vertex="1" parent="1">
          <mxGeometry x="-3340.5" y="1254.25" width="120" height="60" as="geometry" />
        </mxCell>
        <mxCell id="HTESsjXgD58MRlcuuZan-62" value="BAL" style="rounded=0;whiteSpace=wrap;html=1;" vertex="1" parent="1">
          <mxGeometry x="-3181.5" y="1254.25" width="120" height="60" as="geometry" />
        </mxCell>
        <mxCell id="HTESsjXgD58MRlcuuZan-63" value="IND&amp;nbsp;" style="rounded=0;whiteSpace=wrap;html=1;" vertex="1" parent="1">
          <mxGeometry x="-2990.5" y="1254.25" width="120" height="60" as="geometry" />
        </mxCell>
        <mxCell id="HTESsjXgD58MRlcuuZan-64" value="BAL" style="rounded=0;whiteSpace=wrap;html=1;" vertex="1" parent="1">
          <mxGeometry x="-2829.5" y="1254.25" width="120" height="60" as="geometry" />
        </mxCell>
        <mxCell id="HTESsjXgD58MRlcuuZan-65" value="IND&amp;nbsp;" style="rounded=0;whiteSpace=wrap;html=1;" vertex="1" parent="1">
          <mxGeometry x="-2401" y="1254.25" width="120" height="60" as="geometry" />
        </mxCell>
        <mxCell id="HTESsjXgD58MRlcuuZan-66" value="BAL" style="rounded=0;whiteSpace=wrap;html=1;" vertex="1" parent="1">
          <mxGeometry x="-2242" y="1254.25" width="120" height="60" as="geometry" />
        </mxCell>
        <mxCell id="HTESsjXgD58MRlcuuZan-67" value="IND&amp;nbsp;" style="rounded=0;whiteSpace=wrap;html=1;" vertex="1" parent="1">
          <mxGeometry x="-2051" y="1254.25" width="120" height="60" as="geometry" />
        </mxCell>
        <mxCell id="HTESsjXgD58MRlcuuZan-68" value="BAL" style="rounded=0;whiteSpace=wrap;html=1;" vertex="1" parent="1">
          <mxGeometry x="-1890" y="1254.25" width="120" height="60" as="geometry" />
        </mxCell>
        <mxCell id="HTESsjXgD58MRlcuuZan-69" value="IND&amp;nbsp;" style="rounded=0;whiteSpace=wrap;html=1;" vertex="1" parent="1">
          <mxGeometry x="-1585.5" y="1251.75" width="120" height="60" as="geometry" />
        </mxCell>
        <mxCell id="HTESsjXgD58MRlcuuZan-70" value="BAL" style="rounded=0;whiteSpace=wrap;html=1;" vertex="1" parent="1">
          <mxGeometry x="-1426.5" y="1251.75" width="120" height="60" as="geometry" />
        </mxCell>
        <mxCell id="HTESsjXgD58MRlcuuZan-71" value="IND&amp;nbsp;" style="rounded=0;whiteSpace=wrap;html=1;" vertex="1" parent="1">
          <mxGeometry x="-1235.5" y="1251.75" width="120" height="60" as="geometry" />
        </mxCell>
        <mxCell id="HTESsjXgD58MRlcuuZan-72" value="BAL" style="rounded=0;whiteSpace=wrap;html=1;" vertex="1" parent="1">
          <mxGeometry x="-1074.5" y="1251.75" width="120" height="60" as="geometry" />
        </mxCell>
        <mxCell id="HTESsjXgD58MRlcuuZan-73" value="6 games = 64 bets" style="text;html=1;strokeColor=none;fillColor=none;align=center;verticalAlign=middle;whiteSpace=wrap;rounded=0;" vertex="1" parent="1">
          <mxGeometry x="1654" y="2160" width="113" height="30" as="geometry" />
        </mxCell>
        <mxCell id="HTESsjXgD58MRlcuuZan-74" value="5 games = 16 bets" style="text;html=1;strokeColor=none;fillColor=none;align=center;verticalAlign=middle;whiteSpace=wrap;rounded=0;" vertex="1" parent="1">
          <mxGeometry x="1638" y="2040" width="129" height="30" as="geometry" />
        </mxCell>
        <mxCell id="HTESsjXgD58MRlcuuZan-75" value="488 - 24698" style="text;html=1;strokeColor=none;fillColor=none;align=center;verticalAlign=middle;whiteSpace=wrap;rounded=0;" vertex="1" parent="1">
          <mxGeometry x="1654" y="2076" width="101" height="30" as="geometry" />
        </mxCell>
      </root>
    </mxGraphModel>
  </diagram>
</mxfile>
